<?xml version="1.0" encoding="UTF-8" standalone="no"?>
<!-- Created with Inkscape (http://www.inkscape.org/) -->

<svg
   xmlns:dc="http://purl.org/dc/elements/1.1/"
   xmlns:cc="http://creativecommons.org/ns#"
   xmlns:rdf="http://www.w3.org/1999/02/22-rdf-syntax-ns#"
   xmlns:svg="http://www.w3.org/2000/svg"
   xmlns="http://www.w3.org/2000/svg"
   xmlns:sodipodi="http://sodipodi.sourceforge.net/DTD/sodipodi-0.dtd"
   xmlns:inkscape="http://www.inkscape.org/namespaces/inkscape"
   width="14in"
   height="8.5in"
   viewBox="0 0 355.6 215.9"
   version="1.1"
   id="svg8"
   inkscape:version="0.92.1 r15371"
   sodipodi:docname="logo-stone-board.svg">
  <defs
     id="defs2" />
  <sodipodi:namedview
     id="base"
     pagecolor="#ffffff"
     bordercolor="#666666"
     borderopacity="1.0"
     inkscape:pageopacity="0.0"
     inkscape:pageshadow="2"
     inkscape:zoom="0.1767767"
     inkscape:cx="-55.19571"
     inkscape:cy="657.2382"
     inkscape:document-units="mm"
     inkscape:current-layer="g955"
     showgrid="false"
     inkscape:window-width="1366"
     inkscape:window-height="705"
     inkscape:window-x="-8"
     inkscape:window-y="-8"
     inkscape:window-maximized="1"
     showguides="true"
     inkscape:guide-bbox="true"
     units="in" />
  <metadata
     id="metadata5">
    <rdf:RDF>
      <cc:Work
         rdf:about="">
        <dc:format>image/svg+xml</dc:format>
        <dc:type
           rdf:resource="http://purl.org/dc/dcmitype/StillImage" />
        <dc:title></dc:title>
      </cc:Work>
    </rdf:RDF>
  </metadata>
  <g
     inkscape:label="Camada 1"
     inkscape:groupmode="layer"
     id="layer1"
     transform="translate(0,-81.1)">
    <text
       xml:space="preserve"
       style="font-style:normal;font-weight:normal;font-size:10.58333302px;line-height:1.25;font-family:sans-serif;letter-spacing:0px;word-spacing:0px;fill:#000000;fill-opacity:1;stroke:none;stroke-width:0.26458332"
       x="141.74107"
       y="115.00446"
       id="text4537"><tspan
         sodipodi:role="line"
         id="tspan4535"
         x="141.74107"
         y="124.65996"
         style="stroke-width:0.26458332" /></text>
    <text
       xml:space="preserve"
       style="font-style:normal;font-weight:normal;font-size:10.58333302px;line-height:1.25;font-family:sans-serif;letter-spacing:0px;word-spacing:0px;fill:#000000;fill-opacity:1;stroke:none;stroke-width:0.26458332"
       x="127.35393"
       y="117.92941"
       id="text872"><tspan
         sodipodi:role="line"
         id="tspan870"
         x="127.35393"
         y="127.58491"
         style="stroke-width:0.26458332" /></text>
    <g
       id="g71"
       transform="matrix(2.8663212,0,0,2.8663212,-127.48665,-213.40436)">
      <g
         id="g955">
        <g
           id="g862"
           transform="matrix(0.43127612,0.82379024,-0.82379024,0.43127612,136.64717,2.8124671)"
           inkscape:export-xdpi="96"
           inkscape:export-ydpi="96">
          <path
             inkscape:export-ydpi="96"
             inkscape:export-xdpi="96"
             sodipodi:nodetypes="cccc"
             inkscape:connector-curvature="0"
             id="path4519"
             d="m 115.47172,92.703868 14.4576,31.561002 -28.20787,-5.23075 z"
             style="fill:#9099b7;fill-opacity:1;stroke:none;stroke-width:1;stroke-linecap:butt;stroke-linejoin:miter;stroke-miterlimit:4;stroke-dasharray:none;stroke-opacity:1" />
          <path
             inkscape:export-ydpi="96"
             inkscape:export-xdpi="96"
             sodipodi:nodetypes="ccccc"
             inkscape:connector-curvature="0"
             id="path4523"
             d="M 91.09226,134.84821 67.941217,114.81547 85.044644,95.349702 101.72145,119.03412 Z"
             style="fill:#454d6a;fill-opacity:1;stroke:none;stroke-width:1;stroke-linecap:butt;stroke-linejoin:miter;stroke-miterlimit:4;stroke-dasharray:none;stroke-opacity:1" />
          <path
             inkscape:export-ydpi="96"
             inkscape:export-xdpi="96"
             sodipodi:nodetypes="cccc"
             inkscape:connector-curvature="0"
             id="path4525"
             d="m 101.72145,119.03412 14.69522,11.65636 13.51265,-6.42561 z"
             style="fill:#586288;fill-opacity:1;stroke:none;stroke-width:1;stroke-linecap:butt;stroke-linejoin:miter;stroke-miterlimit:4;stroke-dasharray:none;stroke-opacity:1" />
          <path
             inkscape:export-ydpi="96"
             inkscape:export-xdpi="96"
             sodipodi:nodetypes="cccc"
             inkscape:connector-curvature="0"
             id="path4527"
             d="M 72.949402,146.56547 91.09226,134.84821 67.941217,114.81547 Z"
             style="fill:#282f4c;fill-opacity:1;stroke:none;stroke-width:1;stroke-linecap:butt;stroke-linejoin:miter;stroke-miterlimit:4;stroke-dasharray:none;stroke-opacity:1" />
          <path
             inkscape:export-ydpi="96"
             inkscape:export-xdpi="96"
             sodipodi:nodetypes="cccc"
             inkscape:connector-curvature="0"
             id="path4529"
             d="m 105.45536,146.1875 -14.3631,-11.33929 10.62919,-15.81409 z"
             style="fill:#282f4c;fill-opacity:1;stroke:none;stroke-width:1;stroke-linecap:butt;stroke-linejoin:miter;stroke-miterlimit:4;stroke-dasharray:none;stroke-opacity:1" />
          <path
             inkscape:export-ydpi="96"
             inkscape:export-xdpi="96"
             sodipodi:nodetypes="cccc"
             inkscape:connector-curvature="0"
             id="path4531"
             d="m 121.33036,141.08482 -4.91369,-10.39434 13.51265,-6.42561 z"
             style="fill:#282f4c;fill-opacity:1;stroke:none;stroke-width:1;stroke-linecap:butt;stroke-linejoin:miter;stroke-miterlimit:4;stroke-dasharray:none;stroke-opacity:1" />
          <path
             inkscape:export-ydpi="96"
             inkscape:export-xdpi="96"
             sodipodi:nodetypes="cccc"
             inkscape:connector-curvature="0"
             id="path4533"
             d="M 101.72145,119.03412 85.044644,95.349702 115.47172,92.703866 Z"
             style="fill:#586288;fill-opacity:1;stroke:none;stroke-width:1;stroke-linecap:butt;stroke-linejoin:miter;stroke-miterlimit:4;stroke-dasharray:none;stroke-opacity:1" />
          <path
             inkscape:export-ydpi="96"
             inkscape:export-xdpi="96"
             inkscape:connector-curvature="0"
             id="path4539"
             d="m 72.949402,146.56547 18.142858,-11.71726 14.3631,11.33929 z"
             style="fill:#1f253d;fill-opacity:1;stroke:none;stroke-width:0.26458332;stroke-linecap:butt;stroke-linejoin:miter;stroke-miterlimit:4;stroke-dasharray:none;stroke-opacity:1" />
          <path
             inkscape:export-ydpi="96"
             inkscape:export-xdpi="96"
             sodipodi:nodetypes="ccccc"
             inkscape:connector-curvature="0"
             id="path4541"
             d="m 105.45536,146.1875 -3.73391,-27.15338 14.69522,11.65636 4.91369,10.39434 z"
             style="fill:#1f253d;fill-opacity:1;stroke:none;stroke-width:1;stroke-linecap:butt;stroke-linejoin:miter;stroke-miterlimit:4;stroke-dasharray:none;stroke-opacity:1" />
          <g
             inkscape:export-ydpi="96"
             inkscape:export-xdpi="96"
             style="stroke:#ffffff;stroke-width:1;stroke-linecap:round;stroke-linejoin:round;stroke-miterlimit:4;stroke-dasharray:none"
             id="g4515">
            <path
               style="fill:none;stroke:#ffffff;stroke-width:1;stroke-linecap:round;stroke-linejoin:round;stroke-miterlimit:4;stroke-dasharray:none;stroke-opacity:1"
               d="M 72.949402,146.56547 91.09226,134.84821 101.72145,119.03412 115.47172,92.703866"
               id="path4493"
               inkscape:connector-curvature="0"
               sodipodi:nodetypes="cccc" />
            <path
               style="fill:none;stroke:#ffffff;stroke-width:1;stroke-linecap:round;stroke-linejoin:round;stroke-miterlimit:4;stroke-dasharray:none;stroke-opacity:1"
               d="M 105.45536,146.1875 91.09226,134.84821"
               id="path4495"
               inkscape:connector-curvature="0" />
            <path
               sodipodi:nodetypes="cc"
               style="fill:none;stroke:#ffffff;stroke-width:1;stroke-linecap:round;stroke-linejoin:round;stroke-miterlimit:4;stroke-dasharray:none;stroke-opacity:1"
               d="M 67.941217,114.81547 91.09226,134.84821"
               id="path4497"
               inkscape:connector-curvature="0" />
            <path
               sodipodi:nodetypes="cc"
               style="fill:none;stroke:#ffffff;stroke-width:1;stroke-linecap:round;stroke-linejoin:round;stroke-miterlimit:4;stroke-dasharray:none;stroke-opacity:1"
               d="m 105.45536,146.1875 -3.73391,-27.15338"
               id="path4499"
               inkscape:connector-curvature="0" />
            <path
               sodipodi:nodetypes="ccc"
               style="fill:none;stroke:#ffffff;stroke-width:1;stroke-linecap:round;stroke-linejoin:round;stroke-miterlimit:4;stroke-dasharray:none;stroke-opacity:1"
               d="m 85.044644,95.349702 16.676806,23.684418 28.20787,5.23075"
               id="path4501"
               inkscape:connector-curvature="0" />
            <path
               sodipodi:nodetypes="ccc"
               style="fill:none;stroke:#ffffff;stroke-width:1;stroke-linecap:round;stroke-linejoin:round;stroke-miterlimit:4;stroke-dasharray:none;stroke-opacity:1"
               d="m 101.72145,119.03412 14.69522,11.65636 4.91369,10.39434"
               id="path4503"
               inkscape:connector-curvature="0" />
            <path
               sodipodi:nodetypes="cc"
               style="fill:none;stroke:#ffffff;stroke-width:1;stroke-linecap:round;stroke-linejoin:round;stroke-miterlimit:4;stroke-dasharray:none;stroke-opacity:1"
               d="m 116.41667,130.69048 13.51265,-6.42561"
               id="path4505"
               inkscape:connector-curvature="0" />
            <path
               style="fill:none;stroke:#ffffff;stroke-width:1;stroke-linecap:round;stroke-linejoin:round;stroke-miterlimit:4;stroke-dasharray:none;stroke-opacity:1"
               d="m 121.33036,141.08482 8.59896,-16.81995 -14.4576,-31.561002 -30.427076,2.645834 -17.103427,19.465768 5.008187,31.75 32.505956,-0.37797 z"
               id="path4491"
               inkscape:connector-curvature="0"
               sodipodi:nodetypes="cccccccc" />
          </g>
        </g>
        <text
           xml:space="preserve"
           style="font-style:normal;font-weight:normal;font-size:14.58401012px;line-height:1.25;font-family:sans-serif;letter-spacing:0px;word-spacing:0px;fill:#ffffff;fill-opacity:1;stroke:none;stroke-width:0.36460024"
           x="90.740051"
           y="155.08014"
           id="text30"
           transform="scale(0.9891871,1.0109311)"
           inkscape:export-xdpi="96"
           inkscape:export-ydpi="96"><tspan
             sodipodi:role="line"
             id="tspan28"
             x="90.740051"
             y="155.08014"
             style="font-style:normal;font-variant:normal;font-weight:bold;font-stretch:normal;font-size:23.33441544px;font-family:Amaranth;-inkscape-font-specification:Amaranth;fill:#ffffff;fill-opacity:1;stroke-width:0.36460024">STONE</tspan></text>
        <text
           xml:space="preserve"
           style="font-style:normal;font-weight:normal;font-size:20.72293854px;line-height:1.25;font-family:sans-serif;letter-spacing:0px;word-spacing:0px;fill:#000000;fill-opacity:1;stroke:none;stroke-width:0.51807344"
           x="108.11794"
           y="170.32533"
           id="text842"
           inkscape:export-xdpi="96"
           inkscape:export-ydpi="96"><tspan
             sodipodi:role="line"
             id="tspan840"
             x="108.11794"
             y="170.32533"
             style="font-style:normal;font-variant:normal;font-weight:normal;font-stretch:normal;font-family:Pacifico;-inkscape-font-specification:Pacifico;fill:#ffffff;fill-opacity:1;stroke-width:0.51807344">Board</tspan></text>
        <g
           aria-label="ST"
           transform="matrix(0.9891871,0,0,1.0109311,10.488111,-10.735493)"
           style="font-style:normal;font-weight:normal;font-size:14.58401108px;line-height:1.25;font-family:sans-serif;letter-spacing:0px;word-spacing:0px;fill:#1f253d;fill-opacity:1;stroke:#ffffff;stroke-width:1;stroke-linecap:round;stroke-linejoin:round;stroke-miterlimit:4;stroke-dasharray:none;stroke-opacity:1"
           id="text30-6-7"
           inkscape:export-xdpi="96"
           inkscape:export-ydpi="96">
          <path
             d="m 86.367717,149.69158 c 0.560026,0 1.096718,0.0467 1.610075,0.14001 0.528913,0.0933 1.018936,0.21 1.470068,0.35001 0.451132,0.14001 0.855595,0.30335 1.21339,0.49003 0.373351,0.17111 0.692254,0.35001 0.956711,0.53669 l -1.353396,2.56678 c -0.186675,-0.0933 -0.412241,-0.21 -0.676698,-0.35001 -0.264457,-0.15557 -0.552249,-0.30335 -0.863374,-0.44336 -0.295569,-0.14001 -0.606695,-0.25668 -0.933376,-0.35001 -0.311126,-0.0933 -0.614474,-0.14001 -0.910043,-0.14001 -0.544469,0 -0.948932,0.11667 -1.213389,0.35002 -0.264457,0.21779 -0.396685,0.4978 -0.396685,0.84004 0.01555,0.26445 0.07778,0.4978 0.186675,0.70003 0.108894,0.20223 0.272235,0.40446 0.490023,0.60669 0.217788,0.18668 0.497801,0.37336 0.840039,0.56003 0.342238,0.18667 0.762257,0.38113 1.260058,0.58336 0.622251,0.26445 1.166721,0.53669 1.633409,0.8167 0.466689,0.28001 0.847818,0.59892 1.143387,0.95672 0.117352,0.13495 0.318858,0.42478 0.318858,0.42478 l -5.873072,7.46412 c 0,0 -0.549348,-0.0667 -0.816082,-0.11854 -0.544469,-0.1089 -1.050048,-0.24891 -1.516737,-0.42002 -0.466688,-0.17112 -0.894486,-0.35002 -1.283393,-0.5367 -0.388907,-0.20223 -0.723367,-0.3889 -1.00338,-0.56002 l 1.260059,-2.75346 c 0.108894,0.0778 0.311126,0.21001 0.606695,0.39668 0.295569,0.17112 0.630029,0.35002 1.00338,0.53669 0.37335,0.17112 0.754479,0.32668 1.143386,0.46669 0.388907,0.14001 0.738923,0.21001 1.050049,0.21001 0.653363,0 1.12783,-0.14778 1.423399,-0.44335 0.311125,-0.31113 0.466688,-0.7467 0.466688,-1.30673 0,-0.56003 -0.194453,-0.98005 -0.58336,-1.26006 -0.373351,-0.29557 -0.910042,-0.58336 -1.610075,-0.86337 -0.684476,-0.28001 -1.291171,-0.57558 -1.820084,-0.88671 -0.528913,-0.31113 -0.980045,-0.66114 -1.353396,-1.05005 -0.357795,-0.38891 -0.637808,-0.82448 -0.840039,-1.30672 -0.186675,-0.48225 -0.280013,-1.04227 -0.280013,-1.68008 0,-0.70003 0.140006,-1.32229 0.420019,-1.86676 0.295569,-0.56002 0.684476,-1.03449 1.166721,-1.4234 0.482245,-0.40446 1.034492,-0.70781 1.656743,-0.91004 0.637808,-0.21779 1.306728,-0.32668 2.00676,-0.32668 z"
             style="font-style:normal;font-variant:normal;font-weight:bold;font-stretch:normal;font-size:23.33441544px;font-family:Amaranth;-inkscape-font-specification:Amaranth;fill:#1f253d;fill-opacity:1;stroke:#ffffff;stroke-width:1;stroke-linecap:round;stroke-linejoin:round;stroke-miterlimit:4;stroke-dasharray:none;stroke-opacity:1"
             id="path892-9"
             inkscape:connector-curvature="0"
             sodipodi:nodetypes="scsccccccsccccscsccccccccccsscsccsccscccs" />
          <path
             d="M 95.635809,152.72505 H 92.44378 v -2.82346 h 5.331833 z"
             style="font-style:normal;font-variant:normal;font-weight:bold;font-stretch:normal;font-size:23.33441544px;font-family:Amaranth;-inkscape-font-specification:Amaranth;fill:#1f253d;fill-opacity:1;stroke:#ffffff;stroke-width:1;stroke-linecap:round;stroke-linejoin:round;stroke-miterlimit:4;stroke-dasharray:none;stroke-opacity:1"
             id="path894-4"
             inkscape:connector-curvature="0"
             sodipodi:nodetypes="ccccc" />
        </g>
        <g
           aria-label="ST"
           transform="matrix(0.98918709,0,0,1.0109311,10.488112,-10.735493)"
           style="font-style:normal;font-weight:normal;font-size:14.58401108px;line-height:1.25;font-family:sans-serif;letter-spacing:0px;word-spacing:0px;fill:#282f4c;fill-opacity:1;stroke:#ffffff;stroke-width:0;stroke-miterlimit:4;stroke-dasharray:none;stroke-opacity:1"
           id="text30-6"
           inkscape:export-xdpi="96"
           inkscape:export-ydpi="96">
          <path
             d="m 86.367717,149.69158 c 0.560026,0 1.096718,0.0467 1.610075,0.14001 0.528913,0.0933 1.018936,0.21 1.470068,0.35001 0.451132,0.14001 0.855595,0.30335 1.21339,0.49003 0.373351,0.17111 0.692254,0.35001 0.956711,0.53669 l -1.353396,2.56678 c -0.186675,-0.0933 -0.412241,-0.21 -0.676698,-0.35001 -0.264457,-0.15557 -0.552249,-0.30335 -0.863374,-0.44336 -0.295569,-0.14001 -0.606695,-0.25668 -0.933376,-0.35001 -0.311126,-0.0933 -0.614474,-0.14001 -0.910043,-0.14001 -0.544469,0 -0.948932,0.11667 -1.213389,0.35002 -0.264457,0.21779 -0.396685,0.4978 -0.396685,0.84004 0.01555,0.26445 0.07778,0.4978 0.186675,0.70003 0.108894,0.20223 0.272235,0.40446 0.490023,0.60669 0.217788,0.18668 0.497801,0.37336 0.840039,0.56003 0.342238,0.18667 0.762257,0.38113 1.260058,0.58336 0.622251,0.26445 1.166721,0.53669 1.633409,0.8167 0.466689,0.28001 0.847818,0.59892 1.143387,0.95672 0.117352,0.13495 0.318858,0.42478 0.318858,0.42478 l -5.873072,7.46412 c 0,0 -0.549348,-0.0667 -0.816082,-0.11854 -0.544469,-0.1089 -1.050048,-0.24891 -1.516737,-0.42002 -0.466688,-0.17112 -0.894486,-0.35002 -1.283393,-0.5367 -0.388907,-0.20223 -0.723367,-0.3889 -1.00338,-0.56002 l 1.260059,-2.75346 c 0.108894,0.0778 0.311126,0.21001 0.606695,0.39668 0.295569,0.17112 0.630029,0.35002 1.00338,0.53669 0.37335,0.17112 0.754479,0.32668 1.143386,0.46669 0.388907,0.14001 0.738923,0.21001 1.050049,0.21001 0.653363,0 1.12783,-0.14778 1.423399,-0.44335 0.311125,-0.31113 0.466688,-0.7467 0.466688,-1.30673 0,-0.56003 -0.194453,-0.98005 -0.58336,-1.26006 -0.373351,-0.29557 -0.910042,-0.58336 -1.610075,-0.86337 -0.684476,-0.28001 -1.291171,-0.57558 -1.820084,-0.88671 -0.528913,-0.31113 -0.980045,-0.66114 -1.353396,-1.05005 -0.357795,-0.38891 -0.637808,-0.82448 -0.840039,-1.30672 -0.186675,-0.48225 -0.280013,-1.04227 -0.280013,-1.68008 0,-0.70003 0.140006,-1.32229 0.420019,-1.86676 0.295569,-0.56002 0.684476,-1.03449 1.166721,-1.4234 0.482245,-0.40446 1.034492,-0.70781 1.656743,-0.91004 0.637808,-0.21779 1.306728,-0.32668 2.00676,-0.32668 z"
             style="font-style:normal;font-variant:normal;font-weight:bold;font-stretch:normal;font-size:23.33441544px;font-family:Amaranth;-inkscape-font-specification:Amaranth;fill:#282f4c;fill-opacity:1;stroke:#ffffff;stroke-width:0;stroke-miterlimit:4;stroke-dasharray:none;stroke-opacity:1"
             id="path892"
             inkscape:connector-curvature="0"
             sodipodi:nodetypes="scsccccccsccccscsccccccccccsscsccsccscccs" />
          <path
             d="M 95.635809,152.72505 H 92.44378 v -2.82346 h 5.331833 z"
             style="font-style:normal;font-variant:normal;font-weight:bold;font-stretch:normal;font-size:23.33441544px;font-family:Amaranth;-inkscape-font-specification:Amaranth;fill:#282f4c;fill-opacity:1;stroke:#ffffff;stroke-width:0;stroke-miterlimit:4;stroke-dasharray:none;stroke-opacity:1"
             id="path894"
             inkscape:connector-curvature="0"
             sodipodi:nodetypes="ccccc" />
        </g>
      </g>
    </g>
  </g>
</svg>
