<?xml version="1.0" encoding="UTF-8" standalone="no"?>
<!-- Created with Inkscape (http://www.inkscape.org/) -->

<svg
   xmlns:dc="http://purl.org/dc/elements/1.1/"
   xmlns:cc="http://creativecommons.org/ns#"
   xmlns:rdf="http://www.w3.org/1999/02/22-rdf-syntax-ns#"
   xmlns:svg="http://www.w3.org/2000/svg"
   xmlns="http://www.w3.org/2000/svg"
   xmlns:sodipodi="http://sodipodi.sourceforge.net/DTD/sodipodi-0.dtd"
   xmlns:inkscape="http://www.inkscape.org/namespaces/inkscape"
   width="14in"
   height="8.5in"
   viewBox="0 0 355.6 215.9"
   version="1.1"
   id="svg8"
   inkscape:version="0.92.1 r15371"
   sodipodi:docname="logo-stone-board.svg">
  <defs
     id="defs2" />
  <sodipodi:namedview
     id="base"
     pagecolor="#ffffff"
     bordercolor="#666666"
     borderopacity="1.0"
     inkscape:pageopacity="0.0"
     inkscape:pageshadow="2"
     inkscape:zoom="0.1767767"
     inkscape:cx="-55.19571"
     inkscape:cy="657.2382"
     inkscape:document-units="mm"
     inkscape:current-layer="g955"
     showgrid="false"
     inkscape:window-width="1366"
     inkscape:window-height="705"
     inkscape:window-x="-8"
     inkscape:window-y="-8"
     inkscape:window-maximized="1"
     showguides="true"
     inkscape:guide-bbox="true"
     units="in" />
  <metadata
     id="metadata5">
    <rdf:RDF>
      <cc:Work
         rdf:about="">
        <dc:format>image/svg+xml</dc:format>
        <dc:type
           rdf:resource="http://purl.org/dc/dcmitype/StillImage" />
        <dc:title />
      </cc:Work>
    </rdf:RDF>
  </metadata>
  <g
     inkscape:label="Camada 1"
     inkscape:groupmode="layer"
     id="layer1"
     transform="translate(0,-81.1)">
    <text
       xml:space="preserve"
       style="font-style:normal;font-weight:normal;font-size:10.58333302px;line-height:1.25;font-family:sans-serif;letter-spacing:0px;word-spacing:0px;fill:#000000;fill-opacity:1;stroke:none;stroke-width:0.26458332"
       x="141.74107"
       y="115.00446"
       id="text4537"><tspan
         sodipodi:role="line"
         id="tspan4535"
         x="141.74107"
         y="124.65996"
         style="stroke-width:0.26458332" /></text>
    <text
       xml:space="preserve"
       style="font-style:normal;font-weight:normal;font-size:10.58333302px;line-height:1.25;font-family:sans-serif;letter-spacing:0px;word-spacing:0px;fill:#000000;fill-opacity:1;stroke:none;stroke-width:0.26458332"
       x="127.35393"
       y="117.92941"
       id="text872"><tspan
         sodipodi:role="line"
         id="tspan870"
         x="127.35393"
         y="127.58491"
         style="stroke-width:0.26458332" /></text>
    <g
       id="g71"
       transform="matrix(2.8663212,0,0,2.8663212,-127.48665,-213.40436)">
      <g
         id="g955">
        <g
           id="g862"
           transform="matrix(0.43127612,0.82379024,-0.82379024,0.43127612,136.64717,2.8124671)"
           inkscape:export-xdpi="96"
           inkscape:export-ydpi="96">
          <path
             inkscape:export-ydpi="96"
             inkscape:export-xdpi="96"
             sodipodi:nodetypes="cccc"
             inkscape:connector-curvature="0"
             id="path4519"
             d="m 115.47172,92.703868 14.4576,31.561002 -28.20787,-5.23075 z"
             style="fill:#9099b7;fill-opacity:1;stroke:none;stroke-width:1;stroke-linecap:butt;stroke-linejoin:miter;stroke-miterlimit:4;stroke-dasharray:none;stroke-opacity:1" />
          <path
             inkscape:export-ydpi="96"
             inkscape:export-xdpi="96"
             sodipodi:nodetypes="ccccc"
             inkscape:connector-curvature="0"
             id="path4523"
             d="M 91.09226,134.84821 67.941217,114.81547 85.044644,95.349702 101.72145,119.03412 Z"
             style="fill:#454d6a;fill-opacity:1;stroke:none;stroke-width:1;stroke-linecap:butt;stroke-linejoin:miter;stroke-miterlimit:4;stroke-dasharray:none;stroke-opacity:1" />
          <path
             inkscape:export-ydpi="96"
             inkscape:export-xdpi="96"
             sodipodi:nodetypes="cccc"
             inkscape:connector-curvature="0"
             id="path4525"
             d="m 101.72145,119.03412 14.69522,11.65636 13.51265,-6.42561 z"
             style="fill:#586288;fill-opacity:1;stroke:none;stroke-width:1;stroke-linecap:butt;stroke-linejoin:miter;stroke-miterlimit:4;stroke-dasharray:none;stroke-opacity:1" />
          <path
             inkscape:export-ydpi="96"
             inkscape:export-xdpi="96"
             sodipodi:nodetypes="cccc"
             inkscape:connector-curvature="0"
             id="path4527"
             d="M 72.949402,146.56547 91.09226,134.84821 67.941217,114.81547 Z"
             style="fill:#282f4c;fill-opacity:1;stroke:none;stroke-width:1;stroke-linecap:butt;stroke-linejoin:miter;stroke-miterlimit:4;stroke-dasharray:none;stroke-opacity:1" />
          <path
             inkscape:export-ydpi="96"
             inkscape:export-xdpi="96"
             sodipodi:nodetypes="cccc"
             inkscape:connector-curvature="0"
             id="path4529"
             d="m 105.45536,146.1875 -14.3631,-11.33929 10.62919,-15.81409 z"
             style="fill:#282f4c;fill-opacity:1;stroke:none;stroke-width:1;stroke-linecap:butt;stroke-linejoin:miter;stroke-miterlimit:4;stroke-dasharray:none;stroke-opacity:1" />
          <path
             inkscape:export-ydpi="96"
             inkscape:export-xdpi="96"
             sodipodi:nodetypes="cccc"
             inkscape:connector-curvature="0"
             id="path4531"
             d="m 121.33036,141.08482 -4.91369,-10.39434 13.51265,-6.42561 z"
             style="fill:#282f4c;fill-opacity:1;stroke:none;stroke-width:1;stroke-linecap:butt;stroke-linejoin:miter;stroke-miterlimit:4;stroke-dasharray:none;stroke-opacity:1" />
          <path
             inkscape:export-ydpi="96"
             inkscape:export-xdpi="96"
             sodipodi:nodetypes="cccc"
             inkscape:connector-curvature="0"
             id="path4533"
             d="M 101.72145,119.03412 85.044644,95.349702 115.47172,92.703866 Z"
             style="fill:#586288;fill-opacity:1;stroke:none;stroke-width:1;stroke-linecap:butt;stroke-linejoin:miter;stroke-miterlimit:4;stroke-dasharray:none;stroke-opacity:1" />
          <path
             inkscape:export-ydpi="96"
             inkscape:export-xdpi="96"
             inkscape:connector-curvature="0"
             id="path4539"
             d="m 72.949402,146.56547 18.142858,-11.71726 14.3631,11.33929 z"
             style="fill:#1f253d;fill-opacity:1;stroke:none;stroke-width:0.26458332;stroke-linecap:butt;stroke-linejoin:miter;stroke-miterlimit:4;stroke-dasharray:none;stroke-opacity:1" />
          <path
             inkscape:export-ydpi="96"
             inkscape:export-xdpi="96"
             sodipodi:nodetypes="ccccc"
             inkscape:connector-curvature="0"
             id="path4541"
             d="m 105.45536,146.1875 -3.73391,-27.15338 14.69522,11.65636 4.91369,10.39434 z"
             style="fill:#1f253d;fill-opacity:1;stroke:none;stroke-width:1;stroke-linecap:butt;stroke-linejoin:miter;stroke-miterlimit:4;stroke-dasharray:none;stroke-opacity:1" />
          <g
             inkscape:export-ydpi="96"
             inkscape:export-xdpi="96"
             style="stroke:#ffffff;stroke-width:1;stroke-linecap:round;stroke-linejoin:round;stroke-miterlimit:4;stroke-dasharray:none"
             id="g4515">
            <path
               style="fill:none;stroke:#ffffff;stroke-width:1;stroke-linecap:round;stroke-linejoin:round;stroke-miterlimit:4;stroke-dasharray:none;stroke-opacity:1"
               d="M 72.949402,146.56547 91.09226,134.84821 101.72145,119.03412 115.47172,92.703866"
               id="path4493"
               inkscape:connector-curvature="0"
               sodipodi:nodetypes="cccc" />
            <path
               style="fill:none;stroke:#ffffff;stroke-width:1;stroke-linecap:round;stroke-linejoin:round;stroke-miterlimit:4;stroke-dasharray:none;stroke-opacity:1"
               d="M 105.45536,146.1875 91.09226,134.84821"
               id="path4495"
               inkscape:connector-curvature="0" />
            <path
               sodipodi:nodetypes="cc"
               style="fill:none;stroke:#ffffff;stroke-width:1;stroke-linecap:round;stroke-linejoin:round;stroke-miterlimit:4;stroke-dasharray:none;stroke-opacity:1"
               d="M 67.941217,114.81547 91.09226,134.84821"
               id="path4497"
               inkscape:connector-curvature="0" />
            <path
               sodipodi:nodetypes="cc"
               style="fill:none;stroke:#ffffff;stroke-width:1;stroke-linecap:round;stroke-linejoin:round;stroke-miterlimit:4;stroke-dasharray:none;stroke-opacity:1"
               d="m 105.45536,146.1875 -3.73391,-27.15338"
               id="path4499"
               inkscape:connector-curvature="0" />
            <path
               sodipodi:nodetypes="ccc"
               style="fill:none;stroke:#ffffff;stroke-width:1;stroke-linecap:round;stroke-linejoin:round;stroke-miterlimit:4;stroke-dasharray:none;stroke-opacity:1"
               d="m 85.044644,95.349702 16.676806,23.684418 28.20787,5.23075"
               id="path4501"
               inkscape:connector-curvature="0" />
            <path
               sodipodi:nodetypes="ccc"
               style="fill:none;stroke:#ffffff;stroke-width:1;stroke-linecap:round;stroke-linejoin:round;stroke-miterlimit:4;stroke-dasharray:none;stroke-opacity:1"
               d="m 101.72145,119.03412 14.69522,11.65636 4.91369,10.39434"
               id="path4503"
               inkscape:connector-curvature="0" />
            <path
               sodipodi:nodetypes="cc"
               style="fill:none;stroke:#ffffff;stroke-width:1;stroke-linecap:round;stroke-linejoin:round;stroke-miterlimit:4;stroke-dasharray:none;stroke-opacity:1"
               d="m 116.41667,130.69048 13.51265,-6.42561"
               id="path4505"
               inkscape:connector-curvature="0" />
            <path
               style="fill:none;stroke:#ffffff;stroke-width:1;stroke-linecap:round;stroke-linejoin:round;stroke-miterlimit:4;stroke-dasharray:none;stroke-opacity:1"
               d="m 121.33036,141.08482 8.59896,-16.81995 -14.4576,-31.561002 -30.427076,2.645834 -17.103427,19.465768 5.008187,31.75 32.505956,-0.37797 z"
               id="path4491"
               inkscape:connector-curvature="0"
               sodipodi:nodetypes="cccccccc" />
          </g>
        </g>
        <g
           aria-label="STONE"
           transform="scale(0.9891871,1.0109311)"
           style="font-style:normal;font-weight:normal;font-size:14.58401012px;line-height:1.25;font-family:sans-serif;letter-spacing:0px;word-spacing:0px;fill:#ffffff;fill-opacity:1;stroke:none;stroke-width:0.36460024"
           id="text30">
          <path
             d="m 96.97034,139.07273 q 0.840039,0 1.610075,0.14001 0.79337,0.14 1.470065,0.35001 0.6767,0.21001 1.21339,0.49003 0.56003,0.25667 0.95671,0.53669 l -1.35339,2.56678 q -0.28002,-0.14 -0.6767,-0.35001 -0.396686,-0.23335 -0.863374,-0.44336 -0.443354,-0.21001 -0.933376,-0.35001 -0.466689,-0.14001 -0.910043,-0.14001 -0.816704,0 -1.213389,0.35002 -0.396685,0.32668 -0.396685,0.84004 0.02333,0.39668 0.186675,0.70003 0.163341,0.30335 0.490023,0.60669 0.326682,0.28002 0.840039,0.56003 0.513357,0.28001 1.260058,0.58336 0.933377,0.39668 1.633412,0.8167 0.70003,0.42002 1.14338,0.95671 0.46669,0.5367 0.70004,1.21339 0.23334,0.6767 0.23334,1.56341 0,1.07338 -0.39668,2.03009 -0.37336,0.93338 -1.09672,1.63341 -0.72337,0.70004 -1.750084,1.09672 -1.026714,0.39669 -2.310107,0.39669 -0.910042,0 -1.750081,-0.16335 -0.816704,-0.16334 -1.516737,-0.42001 -0.700032,-0.25668 -1.283393,-0.5367 -0.58336,-0.30334 -1.00338,-0.56002 l 1.260059,-2.75346 q 0.163341,0.11667 0.606695,0.39668 0.443354,0.25668 1.00338,0.53669 0.560025,0.25668 1.143386,0.46669 0.58336,0.21001 1.050049,0.21001 0.980045,0 1.423399,-0.44335 0.466688,-0.46669 0.466688,-1.30673 0,-0.84004 -0.58336,-1.26006 -0.560026,-0.44335 -1.610075,-0.86337 -1.026714,-0.42002 -1.820084,-0.88671 -0.79337,-0.46669 -1.353396,-1.05005 -0.536692,-0.58336 -0.840039,-1.30673 -0.280013,-0.72336 -0.280013,-1.68007 0,-1.05005 0.420019,-1.86676 0.443354,-0.84004 1.166721,-1.4234 0.723367,-0.60669 1.656743,-0.91004 0.956711,-0.32668 2.00676,-0.32668 z"
             style="font-style:normal;font-variant:normal;font-weight:bold;font-stretch:normal;font-size:23.33441544px;font-family:Amaranth;-inkscape-font-specification:Amaranth;fill:#ffffff;fill-opacity:1;stroke-width:0.36460024"
             id="path53" />
          <path
             d="m 114.78361,139.28274 -0.49002,2.82346 h -3.64017 v 12.97394 h -3.85018 V 142.1062 h -3.75684 v -2.82346 z"
             style="font-style:normal;font-variant:normal;font-weight:bold;font-stretch:normal;font-size:23.33441544px;font-family:Amaranth;-inkscape-font-specification:Amaranth;fill:#ffffff;fill-opacity:1;stroke-width:0.36460024"
             id="path55" />
          <path
             d="m 122.40266,139.07273 q 1.84342,0 3.17348,0.56003 1.33007,0.56002 2.19344,1.58674 0.86337,1.02671 1.26006,2.52011 0.42002,1.47007 0.42002,3.31349 0,1.82008 -0.46669,3.33682 -0.44336,1.4934 -1.3534,2.56679 -0.91004,1.07338 -2.28677,1.68008 -1.37673,0.58336 -3.24348,0.58336 -1.84342,0 -3.19682,-0.51336 -1.33006,-0.53669 -2.19343,-1.54007 -0.86338,-1.02672 -1.2834,-2.47345 -0.39668,-1.44673 -0.39668,-3.31349 0,-1.82008 0.44335,-3.33682 0.46669,-1.54007 1.37673,-2.63679 0.91005,-1.12005 2.28678,-1.72675 1.40006,-0.60669 3.26681,-0.60669 z m -0.32668,2.73013 q -1.51674,0 -2.21677,1.4234 -0.6767,1.40006 -0.6767,3.89684 0,1.19006 0.14001,2.1701 0.16334,0.98005 0.51336,1.70342 0.37335,0.70003 1.00338,1.09671 0.63003,0.39669 1.58674,0.39669 1.51674,0 2.19343,-1.3534 0.6767,-1.35339 0.6767,-3.85018 0,-1.19005 -0.16334,-2.19343 -0.14001,-1.00338 -0.51336,-1.72675 -0.35001,-0.7467 -0.98004,-1.14338 -0.63003,-0.42002 -1.56341,-0.42002 z"
             style="font-style:normal;font-variant:normal;font-weight:bold;font-stretch:normal;font-size:23.33441544px;font-family:Amaranth;-inkscape-font-specification:Amaranth;fill:#ffffff;fill-opacity:1;stroke-width:0.36460024"
             id="path57" />
          <path
             d="m 141.12525,139.28274 h 3.85018 v 15.7974 h -3.29015 l -4.50354,-6.81365 q -0.14001,-0.21001 -0.39669,-0.60669 -0.23334,-0.39669 -0.51336,-0.81671 -0.25667,-0.44335 -0.51335,-0.84004 -0.23335,-0.42002 -0.39669,-0.6767 0.0233,0.35002 0.0467,0.86338 0.0467,0.49002 0.07,1.00338 0.0467,0.51335 0.07,1.00338 0.0233,0.49002 0.0233,0.8167 l 0.07,6.06695 h -3.85018 v -15.7974 h 3.15014 l 4.55021,6.76698 q 0.21001,0.32668 0.46669,0.7467 0.25668,0.39669 0.51336,0.81671 0.28001,0.42002 0.51336,0.8167 0.23334,0.37335 0.39668,0.65336 -0.0233,-0.37335 -0.0467,-0.86337 -0.0233,-0.49002 -0.07,-1.00338 -0.0233,-0.53669 -0.0467,-1.02671 -0.0233,-0.49003 -0.0233,-0.86338 z"
             style="font-style:normal;font-variant:normal;font-weight:bold;font-stretch:normal;font-size:23.33441544px;font-family:Amaranth;-inkscape-font-specification:Amaranth;fill:#ffffff;fill-opacity:1;stroke-width:0.36460024"
             id="path59" />
          <path
             d="m 147.87947,139.28274 h 10.05714 v 2.82346 h -6.20696 v 3.38349 h 5.15691 l -0.44336,2.7768 h -4.71355 v 3.99018 h 6.53364 v 2.82347 h -10.38382 z"
             style="font-style:normal;font-variant:normal;font-weight:bold;font-stretch:normal;font-size:23.33441544px;font-family:Amaranth;-inkscape-font-specification:Amaranth;fill:#ffffff;fill-opacity:1;stroke-width:0.36460024"
             id="path61" />
        </g>
        <g
           aria-label="Board"
           style="font-style:normal;font-weight:normal;font-size:20.72293854px;line-height:1.25;font-family:sans-serif;letter-spacing:0px;word-spacing:0px;fill:#000000;fill-opacity:1;stroke:none;stroke-width:0.51807344"
           id="text842">
          <path
             d="m 126.10545,157.06265 q 0,1.76145 -1.24337,3.04627 -1.24338,1.2641 -3.62652,1.82362 1.28483,0.35229 1.94796,1.16049 0.66313,0.78747 0.66313,1.82362 0,1.63711 -1.03614,2.83904 -1.01543,1.20193 -2.98411,1.86506 -1.96868,0.64241 -4.74555,0.64241 -1.03615,0 -1.65783,-0.0622 -0.0207,0.58024 -0.49736,0.87036 -0.47662,0.29012 -1.22265,0.29012 -0.74602,0 -1.03615,-0.33157 -0.26939,-0.33156 -0.22795,-0.97398 0.18651,-2.90121 0.7253,-6.07182 0.5388,-3.19133 1.36772,-6.15471 0.14506,-0.51807 0.58024,-0.7253 0.43518,-0.20723 1.13976,-0.20723 1.2641,0 1.2641,0.70458 0,0.29012 -0.12434,0.66313 -0.53879,1.61639 -1.07759,4.39327 -0.53879,2.75615 -0.76675,5.26362 0.9947,0.0829 1.61639,0.0829 2.90121,0 4.2482,-0.82891 1.36772,-0.84964 1.36772,-2.15519 0,-0.91181 -0.78747,-1.5335 -0.76675,-0.62169 -2.59037,-0.68385 -0.41446,-0.0207 -0.58024,-0.20723 -0.16579,-0.18651 -0.16579,-0.60097 0,-0.60096 0.24868,-0.97398 0.24867,-0.37301 0.91181,-0.39373 1.47133,-0.0414 2.65253,-0.43518 1.20193,-0.39374 1.88579,-1.09832 0.68386,-0.7253 0.68386,-1.67856 0,-1.20193 -1.18121,-1.88579 -1.18121,-0.70458 -3.62651,-0.70458 -2.21736,0 -4.28965,0.58025 -2.0723,0.55952 -3.5229,1.42988 -0.66314,0.39374 -1.11904,0.39374 -0.37301,0 -0.58024,-0.24868 -0.18651,-0.2694 -0.18651,-0.66313 0,-0.51808 0.20723,-0.89109 0.22795,-0.37301 1.05687,-0.84964 1.74073,-0.9947 4.08242,-1.55422 2.34169,-0.55952 4.787,-0.55952 3.75085,0 5.59519,1.2641 1.84434,1.2641 1.84434,3.33639 z"
             style="font-style:normal;font-variant:normal;font-weight:normal;font-stretch:normal;font-family:Pacifico;-inkscape-font-specification:Pacifico;fill:#ffffff;fill-opacity:1;stroke-width:0.51807344"
             id="path42" />
          <path
             d="m 136.07351,163.96339 q 0.2694,0 0.41446,0.2694 0.14506,0.2694 0.14506,0.68386 0,0.9947 -0.60097,1.1812 -1.24337,0.43518 -2.73542,0.49735 -0.39374,1.74073 -1.55422,2.7976 -1.16049,1.03615 -2.63182,1.03615 -1.24337,0 -2.13446,-0.60097 -0.87036,-0.60096 -1.32627,-1.59566 -0.4559,-0.99471 -0.4559,-2.15519 0,-1.57494 0.60096,-2.7976 0.60097,-1.24337 1.65784,-1.92723 1.05687,-0.70458 2.34169,-0.70458 1.57494,0 2.5282,1.09832 0.97398,1.07759 1.13976,2.67326 0.97398,-0.0622 2.32097,-0.41446 0.16578,-0.0414 0.29012,-0.0414 z m -6.79712,4.26893 q 0.66313,0 1.13976,-0.5388 0.49735,-0.5388 0.66313,-1.55422 -0.64241,-0.43518 -0.9947,-1.13976 -0.33157,-0.70458 -0.33157,-1.49205 0,-0.33157 0.0622,-0.66314 h -0.10361 q -0.82892,0 -1.38844,0.8082 -0.53879,0.78747 -0.53879,2.23807 0,1.13977 0.43518,1.74073 0.4559,0.60097 1.05687,0.60097 z"
             style="font-style:normal;font-variant:normal;font-weight:normal;font-stretch:normal;font-family:Pacifico;-inkscape-font-specification:Pacifico;fill:#ffffff;fill-opacity:1;stroke-width:0.51807344"
             id="path44" />
          <path
             d="m 137.40334,170.42895 q -1.28482,0 -2.05157,-0.93253 -0.76675,-0.93254 -0.76675,-2.44531 0,-1.65784 0.76675,-3.12917 0.76675,-1.49205 2.03085,-2.38313 1.28482,-0.91181 2.7147,-0.91181 0.45591,0 0.60097,0.1865 0.16578,0.16579 0.2694,0.62169 0.43518,-0.0829 0.91181,-0.0829 1.01542,0 1.01542,0.7253 0,0.43518 -0.31084,2.0723 -0.47663,2.38313 -0.47663,3.31567 0,0.31084 0.14506,0.49735 0.16578,0.1865 0.41446,0.1865 0.39373,0 0.95325,-0.49735 0.55952,-0.51807 1.51278,-1.65783 0.24867,-0.29012 0.55952,-0.29012 0.26939,0 0.41445,0.24867 0.16579,0.24868 0.16579,0.68386 0,0.82892 -0.39374,1.28482 -0.84964,1.05687 -1.80289,1.78217 -0.95326,0.72531 -1.84434,0.72531 -0.68386,0 -1.2641,-0.45591 -0.55952,-0.47662 -0.84964,-1.28482 -1.0776,1.74073 -2.71471,1.74073 z m 0.74603,-2.09302 q 0.4559,0 0.87036,-0.5388 0.41446,-0.53879 0.60097,-1.42988 l 0.76674,-3.81302 q -0.87036,0.0207 -1.61639,0.66313 -0.7253,0.62169 -1.16048,1.65784 -0.43518,1.03615 -0.43518,2.19663 0,0.64241 0.24867,0.95326 0.2694,0.31084 0.72531,0.31084 z"
             style="font-style:normal;font-variant:normal;font-weight:normal;font-stretch:normal;font-family:Pacifico;-inkscape-font-specification:Pacifico;fill:#ffffff;fill-opacity:1;stroke-width:0.51807344"
             id="path46" />
          <path
             d="m 146.0801,170.42895 q -0.78747,0 -1.11904,-0.82892 -0.31084,-0.82892 -0.31084,-2.65254 0,-2.69398 0.76675,-5.11856 0.1865,-0.60097 0.60096,-0.87037 0.43518,-0.29012 1.20193,-0.29012 0.41446,0 0.58024,0.10362 0.16579,0.10361 0.16579,0.39373 0,0.33157 -0.31085,1.49206 -0.20723,0.82891 -0.33156,1.4506 -0.12434,0.62169 -0.20723,1.5335 0.68385,-1.78217 1.53349,-2.90121 0.84965,-1.11904 1.65784,-1.59567 0.82892,-0.47663 1.51277,-0.47663 1.347,0 1.347,1.34699 0,0.2694 -0.18651,1.30555 -0.16578,0.82892 -0.16578,1.03615 0,0.7253 0.51807,0.7253 0.58024,0 1.49205,-0.91181 0.2694,-0.2694 0.55952,-0.2694 0.2694,0 0.41446,0.24868 0.16578,0.22795 0.16578,0.62169 0,0.76674 -0.41446,1.20193 -0.58024,0.60096 -1.36771,1.03614 -0.76675,0.41446 -1.63711,0.41446 -1.09832,0 -1.67856,-0.55952 -0.55952,-0.55952 -0.55952,-1.51277 0,-0.31085 0.0622,-0.62169 0.0414,-0.41446 0.0414,-0.55952 0,-0.33157 -0.22795,-0.33157 -0.31084,0 -0.82892,0.70458 -0.49735,0.68386 -0.9947,1.82362 -0.49735,1.13976 -0.80819,2.40386 -0.22795,0.97398 -0.5388,1.32627 -0.29012,0.33157 -0.93253,0.33157 z"
             style="font-style:normal;font-variant:normal;font-weight:normal;font-stretch:normal;font-family:Pacifico;-inkscape-font-specification:Pacifico;fill:#ffffff;fill-opacity:1;stroke-width:0.51807344"
             id="path48" />
          <path
             d="m 165.80995,165.70412 q 0.2694,0 0.41446,0.24867 0.16579,0.24868 0.16579,0.68386 0,0.82892 -0.39374,1.28482 -0.84964,1.03615 -1.86506,1.78217 -1.01543,0.72531 -2.01013,0.72531 -1.57494,0 -2.40386,-1.84434 -0.87036,1.09831 -1.5335,1.47132 -0.64241,0.37302 -1.51277,0.37302 -1.2641,0 -2.09302,-0.93253 -0.80819,-0.95326 -0.80819,-2.46603 0,-1.65784 0.70458,-3.067 0.70458,-1.42988 1.92723,-2.32097 1.24338,-0.91181 2.77687,-1.07759 0.39374,-4.02025 1.49206,-6.85929 1.11903,-2.85977 2.92193,-2.85977 0.89109,0 1.47133,0.8082 0.60096,0.80819 0.60096,2.4453 0,2.32097 -1.13976,5.42941 -1.13976,3.10844 -3.04627,6.38267 0.0829,1.20193 0.35229,1.72 0.29012,0.51807 0.7253,0.51807 0.55952,0 1.13976,-0.49735 0.58025,-0.49735 1.55423,-1.65783 0.24867,-0.29012 0.55951,-0.29012 z m -2.4453,-12.8275 q -0.39374,0 -0.78747,1.40916 -0.39374,1.38844 -0.68386,3.64724 -0.2694,2.2588 -0.39374,4.72483 2.32097,-5.0564 2.32097,-8.1234 0,-0.78747 -0.14506,-1.22265 -0.12434,-0.43518 -0.31084,-0.43518 z m -5.96821,15.45931 q 0.39374,0 0.78747,-0.31084 0.39374,-0.33157 0.9947,-1.20193 -0.20723,-1.11904 -0.20723,-2.50748 0,-0.49735 0.0414,-1.61639 -1.13976,0.35229 -1.90651,1.5335 -0.74603,1.16048 -0.74603,2.59037 0,1.51277 1.03615,1.51277 z"
             style="font-style:normal;font-variant:normal;font-weight:normal;font-stretch:normal;font-family:Pacifico;-inkscape-font-specification:Pacifico;fill:#ffffff;fill-opacity:1;stroke-width:0.51807344"
             id="path50" />
        </g>
        <g
           aria-label="ST"
           transform="matrix(0.9891871,0,0,1.0109311,10.488111,-10.735493)"
           style="font-style:normal;font-weight:normal;font-size:14.58401108px;line-height:1.25;font-family:sans-serif;letter-spacing:0px;word-spacing:0px;fill:#1f253d;fill-opacity:1;stroke:#ffffff;stroke-width:1;stroke-linecap:round;stroke-linejoin:round;stroke-miterlimit:4;stroke-dasharray:none;stroke-opacity:1"
           id="text30-6-7"
           inkscape:export-xdpi="96"
           inkscape:export-ydpi="96">
          <path
             d="m 86.367717,149.69158 c 0.560026,0 1.096718,0.0467 1.610075,0.14001 0.528913,0.0933 1.018936,0.21 1.470068,0.35001 0.451132,0.14001 0.855595,0.30335 1.21339,0.49003 0.373351,0.17111 0.692254,0.35001 0.956711,0.53669 l -1.353396,2.56678 c -0.186675,-0.0933 -0.412241,-0.21 -0.676698,-0.35001 -0.264457,-0.15557 -0.552249,-0.30335 -0.863374,-0.44336 -0.295569,-0.14001 -0.606695,-0.25668 -0.933376,-0.35001 -0.311126,-0.0933 -0.614474,-0.14001 -0.910043,-0.14001 -0.544469,0 -0.948932,0.11667 -1.213389,0.35002 -0.264457,0.21779 -0.396685,0.4978 -0.396685,0.84004 0.01555,0.26445 0.07778,0.4978 0.186675,0.70003 0.108894,0.20223 0.272235,0.40446 0.490023,0.60669 0.217788,0.18668 0.497801,0.37336 0.840039,0.56003 0.342238,0.18667 0.762257,0.38113 1.260058,0.58336 0.622251,0.26445 1.166721,0.53669 1.633409,0.8167 0.466689,0.28001 0.847818,0.59892 1.143387,0.95672 0.117352,0.13495 0.318858,0.42478 0.318858,0.42478 l -5.873072,7.46412 c 0,0 -0.549348,-0.0667 -0.816082,-0.11854 -0.544469,-0.1089 -1.050048,-0.24891 -1.516737,-0.42002 -0.466688,-0.17112 -0.894486,-0.35002 -1.283393,-0.5367 -0.388907,-0.20223 -0.723367,-0.3889 -1.00338,-0.56002 l 1.260059,-2.75346 c 0.108894,0.0778 0.311126,0.21001 0.606695,0.39668 0.295569,0.17112 0.630029,0.35002 1.00338,0.53669 0.37335,0.17112 0.754479,0.32668 1.143386,0.46669 0.388907,0.14001 0.738923,0.21001 1.050049,0.21001 0.653363,0 1.12783,-0.14778 1.423399,-0.44335 0.311125,-0.31113 0.466688,-0.7467 0.466688,-1.30673 0,-0.56003 -0.194453,-0.98005 -0.58336,-1.26006 -0.373351,-0.29557 -0.910042,-0.58336 -1.610075,-0.86337 -0.684476,-0.28001 -1.291171,-0.57558 -1.820084,-0.88671 -0.528913,-0.31113 -0.980045,-0.66114 -1.353396,-1.05005 -0.357795,-0.38891 -0.637808,-0.82448 -0.840039,-1.30672 -0.186675,-0.48225 -0.280013,-1.04227 -0.280013,-1.68008 0,-0.70003 0.140006,-1.32229 0.420019,-1.86676 0.295569,-0.56002 0.684476,-1.03449 1.166721,-1.4234 0.482245,-0.40446 1.034492,-0.70781 1.656743,-0.91004 0.637808,-0.21779 1.306728,-0.32668 2.00676,-0.32668 z"
             style="font-style:normal;font-variant:normal;font-weight:bold;font-stretch:normal;font-size:23.33441544px;font-family:Amaranth;-inkscape-font-specification:Amaranth;fill:#1f253d;fill-opacity:1;stroke:#ffffff;stroke-width:1;stroke-linecap:round;stroke-linejoin:round;stroke-miterlimit:4;stroke-dasharray:none;stroke-opacity:1"
             id="path892-9"
             inkscape:connector-curvature="0"
             sodipodi:nodetypes="scsccccccsccccscsccccccccccsscsccsccscccs" />
          <path
             d="M 95.635809,152.72505 H 92.44378 v -2.82346 h 5.331833 z"
             style="font-style:normal;font-variant:normal;font-weight:bold;font-stretch:normal;font-size:23.33441544px;font-family:Amaranth;-inkscape-font-specification:Amaranth;fill:#1f253d;fill-opacity:1;stroke:#ffffff;stroke-width:1;stroke-linecap:round;stroke-linejoin:round;stroke-miterlimit:4;stroke-dasharray:none;stroke-opacity:1"
             id="path894-4"
             inkscape:connector-curvature="0"
             sodipodi:nodetypes="ccccc" />
        </g>
        <g
           aria-label="ST"
           transform="matrix(0.98918709,0,0,1.0109311,10.488112,-10.735493)"
           style="font-style:normal;font-weight:normal;font-size:14.58401108px;line-height:1.25;font-family:sans-serif;letter-spacing:0px;word-spacing:0px;fill:#282f4c;fill-opacity:1;stroke:#ffffff;stroke-width:0;stroke-miterlimit:4;stroke-dasharray:none;stroke-opacity:1"
           id="text30-6"
           inkscape:export-xdpi="96"
           inkscape:export-ydpi="96">
          <path
             d="m 86.367717,149.69158 c 0.560026,0 1.096718,0.0467 1.610075,0.14001 0.528913,0.0933 1.018936,0.21 1.470068,0.35001 0.451132,0.14001 0.855595,0.30335 1.21339,0.49003 0.373351,0.17111 0.692254,0.35001 0.956711,0.53669 l -1.353396,2.56678 c -0.186675,-0.0933 -0.412241,-0.21 -0.676698,-0.35001 -0.264457,-0.15557 -0.552249,-0.30335 -0.863374,-0.44336 -0.295569,-0.14001 -0.606695,-0.25668 -0.933376,-0.35001 -0.311126,-0.0933 -0.614474,-0.14001 -0.910043,-0.14001 -0.544469,0 -0.948932,0.11667 -1.213389,0.35002 -0.264457,0.21779 -0.396685,0.4978 -0.396685,0.84004 0.01555,0.26445 0.07778,0.4978 0.186675,0.70003 0.108894,0.20223 0.272235,0.40446 0.490023,0.60669 0.217788,0.18668 0.497801,0.37336 0.840039,0.56003 0.342238,0.18667 0.762257,0.38113 1.260058,0.58336 0.622251,0.26445 1.166721,0.53669 1.633409,0.8167 0.466689,0.28001 0.847818,0.59892 1.143387,0.95672 0.117352,0.13495 0.318858,0.42478 0.318858,0.42478 l -5.873072,7.46412 c 0,0 -0.549348,-0.0667 -0.816082,-0.11854 -0.544469,-0.1089 -1.050048,-0.24891 -1.516737,-0.42002 -0.466688,-0.17112 -0.894486,-0.35002 -1.283393,-0.5367 -0.388907,-0.20223 -0.723367,-0.3889 -1.00338,-0.56002 l 1.260059,-2.75346 c 0.108894,0.0778 0.311126,0.21001 0.606695,0.39668 0.295569,0.17112 0.630029,0.35002 1.00338,0.53669 0.37335,0.17112 0.754479,0.32668 1.143386,0.46669 0.388907,0.14001 0.738923,0.21001 1.050049,0.21001 0.653363,0 1.12783,-0.14778 1.423399,-0.44335 0.311125,-0.31113 0.466688,-0.7467 0.466688,-1.30673 0,-0.56003 -0.194453,-0.98005 -0.58336,-1.26006 -0.373351,-0.29557 -0.910042,-0.58336 -1.610075,-0.86337 -0.684476,-0.28001 -1.291171,-0.57558 -1.820084,-0.88671 -0.528913,-0.31113 -0.980045,-0.66114 -1.353396,-1.05005 -0.357795,-0.38891 -0.637808,-0.82448 -0.840039,-1.30672 -0.186675,-0.48225 -0.280013,-1.04227 -0.280013,-1.68008 0,-0.70003 0.140006,-1.32229 0.420019,-1.86676 0.295569,-0.56002 0.684476,-1.03449 1.166721,-1.4234 0.482245,-0.40446 1.034492,-0.70781 1.656743,-0.91004 0.637808,-0.21779 1.306728,-0.32668 2.00676,-0.32668 z"
             style="font-style:normal;font-variant:normal;font-weight:bold;font-stretch:normal;font-size:23.33441544px;font-family:Amaranth;-inkscape-font-specification:Amaranth;fill:#282f4c;fill-opacity:1;stroke:#ffffff;stroke-width:0;stroke-miterlimit:4;stroke-dasharray:none;stroke-opacity:1"
             id="path892"
             inkscape:connector-curvature="0"
             sodipodi:nodetypes="scsccccccsccccscsccccccccccsscsccsccscccs" />
          <path
             d="M 95.635809,152.72505 H 92.44378 v -2.82346 h 5.331833 z"
             style="font-style:normal;font-variant:normal;font-weight:bold;font-stretch:normal;font-size:23.33441544px;font-family:Amaranth;-inkscape-font-specification:Amaranth;fill:#282f4c;fill-opacity:1;stroke:#ffffff;stroke-width:0;stroke-miterlimit:4;stroke-dasharray:none;stroke-opacity:1"
             id="path894"
             inkscape:connector-curvature="0"
             sodipodi:nodetypes="ccccc" />
        </g>
      </g>
    </g>
  </g>
</svg>
