<?xml version="1.0" encoding="UTF-8" standalone="no"?>
<!-- Created with Inkscape (http://www.inkscape.org/) -->

<svg
   xmlns:dc="http://purl.org/dc/elements/1.1/"
   xmlns:cc="http://creativecommons.org/ns#"
   xmlns:rdf="http://www.w3.org/1999/02/22-rdf-syntax-ns#"
   xmlns:svg="http://www.w3.org/2000/svg"
   xmlns="http://www.w3.org/2000/svg"
   xmlns:sodipodi="http://sodipodi.sourceforge.net/DTD/sodipodi-0.dtd"
   xmlns:inkscape="http://www.inkscape.org/namespaces/inkscape"
   width="450mm"
   height="80mm"
   viewBox="0 0 450 80"
   version="1.1"
   id="svg8"
   inkscape:version="0.92.1 r15371"
   sodipodi:docname="logo-stone-board-header.svg">
  <defs
     id="defs2" />
  <sodipodi:namedview
     id="base"
     pagecolor="#ffffff"
     bordercolor="#666666"
     borderopacity="1.0"
     inkscape:pageopacity="0.0"
     inkscape:pageshadow="2"
     inkscape:zoom="0.10975695"
     inkscape:cx="671.70387"
     inkscape:cy="59.586633"
     inkscape:document-units="mm"
     inkscape:current-layer="g955"
     showgrid="false"
     inkscape:window-width="1366"
     inkscape:window-height="705"
     inkscape:window-x="-8"
     inkscape:window-y="-8"
     inkscape:window-maximized="1"
     showguides="true"
     inkscape:guide-bbox="true"
     units="mm"
     inkscape:measure-start="0,0"
     inkscape:measure-end="0,0"
     width="450mm" />
  <metadata
     id="metadata5">
    <rdf:RDF>
      <cc:Work
         rdf:about="">
        <dc:format>image/svg+xml</dc:format>
        <dc:type
           rdf:resource="http://purl.org/dc/dcmitype/StillImage" />
        <dc:title></dc:title>
      </cc:Work>
    </rdf:RDF>
  </metadata>
  <g
     inkscape:label="Camada 1"
     inkscape:groupmode="layer"
     id="layer1"
     transform="translate(0,-217)">
    <text
       xml:space="preserve"
       style="font-style:normal;font-weight:normal;font-size:10.58333302px;line-height:1.25;font-family:sans-serif;letter-spacing:0px;word-spacing:0px;fill:#000000;fill-opacity:1;stroke:none;stroke-width:0.26458332"
       x="141.74107"
       y="115.00446"
       id="text4537"><tspan
         sodipodi:role="line"
         id="tspan4535"
         x="141.74107"
         y="124.65996"
         style="stroke-width:0.26458332" /></text>
    <text
       xml:space="preserve"
       style="font-style:normal;font-weight:normal;font-size:10.58333302px;line-height:1.25;font-family:sans-serif;letter-spacing:0px;word-spacing:0px;fill:#000000;fill-opacity:1;stroke:none;stroke-width:0.26458332"
       x="127.35393"
       y="117.92941"
       id="text872"><tspan
         sodipodi:role="line"
         id="tspan870"
         x="127.35393"
         y="127.58491"
         style="stroke-width:0.26458332" /></text>
    <g
       id="g71"
       transform="matrix(2.8663212,0,0,2.8663212,-127.48665,-213.40436)">
      <g
         id="g955">
        <g
           aria-label="STONE"
           transform="scale(0.9891871,1.0109311)"
           style="font-style:normal;font-weight:normal;font-size:14.0649538px;line-height:1.25;font-family:sans-serif;letter-spacing:0px;word-spacing:0px;fill:#ffffff;fill-opacity:1;stroke:none;stroke-width:0.35162383"
           id="text30">
          <path
             d="m 84.014537,156.54185 q 0.810141,0 1.552771,0.13502 0.765133,0.13502 1.417747,0.33756 0.652614,0.20253 1.170204,0.47258 0.540095,0.24754 0.922661,0.51759 l -1.305227,2.47543 q -0.270047,-0.13502 -0.652614,-0.33756 -0.382567,-0.22504 -0.832645,-0.42757 -0.427575,-0.20254 -0.900157,-0.33756 -0.450079,-0.13502 -0.877654,-0.13502 -0.787637,0 -1.170204,0.33756 -0.382566,0.31505 -0.382566,0.81014 0.0225,0.38256 0.180031,0.67511 0.157528,0.29256 0.472582,0.58511 0.315055,0.27004 0.810142,0.54009 0.495086,0.27005 1.215212,0.5626 0.900157,0.38257 1.575275,0.78764 0.675117,0.40507 1.102692,0.92266 0.450078,0.51759 0.675118,1.1702 0.225039,0.65261 0.225039,1.50776 0,1.03518 -0.382567,1.95785 -0.360063,0.90015 -1.057684,1.57527 -0.697622,0.67512 -1.687795,1.05768 -0.990172,0.38257 -2.227888,0.38257 -0.877653,0 -1.687795,-0.15753 -0.787637,-0.15752 -1.462755,-0.40507 -0.675118,-0.24754 -1.237716,-0.51759 -0.562598,-0.29255 -0.967669,-0.54009 l 1.215212,-2.65546 q 0.157528,0.11252 0.585102,0.38256 0.427575,0.24755 0.967669,0.51759 0.540094,0.24755 1.102693,0.45008 0.562598,0.20254 1.012676,0.20254 0.945165,0 1.37274,-0.42758 0.450078,-0.45008 0.450078,-1.26022 0,-0.81014 -0.562598,-1.21521 -0.540094,-0.42757 -1.552771,-0.83265 -0.990173,-0.40507 -1.755306,-0.85514 -0.765133,-0.45008 -1.305228,-1.01268 -0.51759,-0.5626 -0.810141,-1.26022 -0.270047,-0.69762 -0.270047,-1.62028 0,-1.01268 0.405071,-1.80032 0.427574,-0.81014 1.125196,-1.37274 0.697622,-0.5851 1.597779,-0.87765 0.92266,-0.31505 1.935337,-0.31505 z"
             style="font-style:normal;font-variant:normal;font-weight:bold;font-stretch:normal;font-size:22.50392532px;font-family:Amaranth;-inkscape-font-specification:Amaranth;fill:#ffffff;fill-opacity:1;stroke-width:0.35162383"
             id="path1266" />
          <path
             d="m 101.19382,156.74438 -0.47258,2.72298 h -3.510612 v 12.51218 h -3.713147 v -12.51218 h -3.623132 v -2.72298 z"
             style="font-style:normal;font-variant:normal;font-weight:bold;font-stretch:normal;font-size:22.50392532px;font-family:Amaranth;-inkscape-font-specification:Amaranth;fill:#ffffff;fill-opacity:1;stroke-width:0.35162383"
             id="path1268" />
          <path
             d="m 108.54171,156.54185 q 1.77781,0 3.06053,0.54009 1.28272,0.54009 2.11537,1.53027 0.83264,0.99017 1.21521,2.43042 0.40507,1.41775 0.40507,3.19556 0,1.7553 -0.45008,3.21806 -0.42757,1.44025 -1.30522,2.47543 -0.87766,1.03518 -2.20539,1.62028 -1.32773,0.5626 -3.12805,0.5626 -1.77781,0 -3.08303,-0.49508 -1.28273,-0.5176 -2.11537,-1.48526 -0.83265,-0.99018 -1.23772,-2.38542 -0.38256,-1.39524 -0.38256,-3.19556 0,-1.7553 0.42757,-3.21806 0.45008,-1.48526 1.32773,-2.54294 0.87765,-1.08019 2.20539,-1.66529 1.35023,-0.5851 3.15055,-0.5851 z m -0.31506,2.63295 q -1.46275,0 -2.13787,1.37274 -0.65262,1.35024 -0.65262,3.75816 0,1.1477 0.13503,2.09286 0.15753,0.94517 0.49508,1.64279 0.36007,0.67512 0.96767,1.05769 0.60761,0.38256 1.53027,0.38256 1.46275,0 2.11537,-1.30523 0.65261,-1.30522 0.65261,-3.71314 0,-1.1477 -0.15752,-2.11537 -0.13503,-0.96767 -0.49509,-1.66529 -0.33756,-0.72013 -0.94517,-1.10269 -0.6076,-0.40508 -1.50776,-0.40508 z"
             style="font-style:normal;font-variant:normal;font-weight:bold;font-stretch:normal;font-size:22.50392532px;font-family:Amaranth;-inkscape-font-specification:Amaranth;fill:#ffffff;fill-opacity:1;stroke-width:0.35162383"
             id="path1270" />
          <path
             d="m 126.59794,156.74438 h 3.71315 v 15.23516 h -3.17305 l -4.34326,-6.57115 q -0.13502,-0.20253 -0.38257,-0.5851 -0.22504,-0.38257 -0.49508,-0.78764 -0.24755,-0.42757 -0.49509,-0.81014 -0.22504,-0.40507 -0.38257,-0.65261 0.0225,0.33756 0.045,0.83264 0.045,0.47258 0.0675,0.96767 0.045,0.49509 0.0675,0.96767 0.0225,0.47258 0.0225,0.78764 l 0.0675,5.85102 h -3.71315 v -15.23516 h 3.03803 l 4.38827,6.52614 q 0.20253,0.31505 0.45008,0.72012 0.24754,0.38257 0.49508,0.78764 0.27005,0.40507 0.49509,0.78764 0.22504,0.36006 0.38257,0.63011 -0.0225,-0.36006 -0.045,-0.83265 -0.0225,-0.47258 -0.0675,-0.96766 -0.0225,-0.5176 -0.045,-0.99018 -0.0225,-0.47258 -0.0225,-0.83264 z"
             style="font-style:normal;font-variant:normal;font-weight:bold;font-stretch:normal;font-size:22.50392532px;font-family:Amaranth;-inkscape-font-specification:Amaranth;fill:#ffffff;fill-opacity:1;stroke-width:0.35162383"
             id="path1272" />
          <path
             d="m 133.11177,156.74438 h 9.6992 v 2.72298 h -5.98605 v 3.26306 h 4.97337 l -0.42758,2.67797 h -4.54579 v 3.84817 h 6.3011 v 2.72298 h -10.01425 z"
             style="font-style:normal;font-variant:normal;font-weight:bold;font-stretch:normal;font-size:22.50392532px;font-family:Amaranth;-inkscape-font-specification:Amaranth;fill:#ffffff;fill-opacity:1;stroke-width:0.35162383"
             id="path1274" />
        </g>
        <g
           aria-label="Board"
           style="font-style:normal;font-weight:normal;font-size:19.98539352px;line-height:1.25;font-family:sans-serif;letter-spacing:0px;word-spacing:0px;fill:#000000;fill-opacity:1;stroke:none;stroke-width:0.4996348"
           id="text842">
          <path
             d="m 161.18446,160.55534 q 0,1.69876 -1.19912,2.93785 -1.19912,1.21911 -3.49744,1.75872 1.23909,0.33975 1.87862,1.11918 0.63954,0.75945 0.63954,1.75872 0,1.57884 -0.99927,2.73799 -0.97929,1.15916 -2.8779,1.79869 -1.89861,0.61955 -4.57665,0.61955 -0.99927,0 -1.59884,-0.06 -0.02,0.55959 -0.47965,0.83939 -0.45966,0.27979 -1.17913,0.27979 -0.71948,0 -0.99927,-0.31976 -0.25981,-0.31977 -0.21984,-0.93932 0.17987,-2.79795 0.69949,-5.85572 0.51962,-3.07775 1.31903,-5.93566 0.1399,-0.49963 0.55959,-0.69949 0.4197,-0.19985 1.0992,-0.19985 1.21911,0 1.21911,0.6795 0,0.2798 -0.11991,0.63953 -0.51962,1.55886 -1.03924,4.23691 -0.51962,2.65805 -0.73946,5.07629 0.95929,0.0799 1.55886,0.0799 2.79795,0 4.097,-0.79942 1.31904,-0.8194 1.31904,-2.07848 0,-0.87936 -0.75945,-1.47892 -0.73946,-0.59956 -2.49817,-0.65951 -0.39971,-0.02 -0.55959,-0.19986 -0.15988,-0.17987 -0.15988,-0.57958 0,-0.57957 0.23982,-0.93931 0.23982,-0.35974 0.87936,-0.37972 1.41896,-0.04 2.55813,-0.41969 1.15915,-0.37973 1.81867,-1.05923 0.65952,-0.69949 0.65952,-1.61882 0,-1.15915 -1.13917,-1.81867 -1.13917,-0.6795 -3.49745,-0.6795 -2.13843,0 -4.13697,0.55959 -1.99854,0.53961 -3.39752,1.37899 -0.63953,0.37972 -1.07921,0.37972 -0.35974,0 -0.55959,-0.23982 -0.17987,-0.25981 -0.17987,-0.63953 0,-0.49964 0.19985,-0.85937 0.21984,-0.35974 1.01926,-0.81941 1.67877,-0.95929 3.93712,-1.4989 2.25835,-0.53961 4.61663,-0.53961 3.61735,0 5.39605,1.21911 1.7787,1.21911 1.7787,3.21765 z"
             style="font-style:normal;font-variant:normal;font-weight:normal;font-stretch:normal;font-family:Pacifico;-inkscape-font-specification:Pacifico;fill:#ffffff;fill-opacity:1;stroke-width:0.4996348"
             id="path1255" />
          <path
             d="m 170.79775,167.21048 q 0.25981,0 0.39971,0.25981 0.1399,0.25981 0.1399,0.65952 0,0.95929 -0.57958,1.13916 -1.19912,0.4197 -2.63807,0.47965 -0.37972,1.67878 -1.49891,2.69803 -1.11918,0.99927 -2.53814,0.99927 -1.19912,0 -2.0585,-0.57958 -0.83938,-0.57957 -1.27906,-1.53887 -0.43968,-0.9593 -0.43968,-2.07848 0,-1.51889 0.57958,-2.69803 0.57957,-1.19912 1.59883,-1.85864 1.01925,-0.67951 2.25835,-0.67951 1.51889,0 2.43822,1.05923 0.93931,1.03924 1.09919,2.57812 0.93932,-0.06 2.23837,-0.39971 0.15988,-0.04 0.27979,-0.04 z m -6.55521,4.11699 q 0.63953,0 1.0992,-0.51962 0.47965,-0.51962 0.63953,-1.49891 -0.61955,-0.41969 -0.9593,-1.09919 -0.31976,-0.67951 -0.31976,-1.43895 0,-0.31977 0.0599,-0.63953 h -0.0999 q -0.79942,0 -1.33903,0.77943 -0.51962,0.75944 -0.51962,2.15842 0,1.0992 0.4197,1.67877 0.43968,0.57958 1.01925,0.57958 z"
             style="font-style:normal;font-variant:normal;font-weight:normal;font-stretch:normal;font-family:Pacifico;-inkscape-font-specification:Pacifico;fill:#ffffff;fill-opacity:1;stroke-width:0.4996348"
             id="path1257" />
          <path
             d="m 172.08025,173.44592 q -1.23909,0 -1.97855,-0.89934 -0.73946,-0.89935 -0.73946,-2.35828 0,-1.59883 0.73946,-3.01779 0.73946,-1.43895 1.95857,-2.29832 1.23909,-0.87936 2.61808,-0.87936 0.43968,0 0.57958,0.17987 0.15988,0.15988 0.25981,0.59956 0.41969,-0.0799 0.87936,-0.0799 0.97928,0 0.97928,0.69949 0,0.41969 -0.29978,1.99854 -0.45966,2.29832 -0.45966,3.19766 0,0.29978 0.13989,0.47965 0.15989,0.17987 0.39971,0.17987 0.37972,0 0.91933,-0.47965 0.53961,-0.49964 1.45893,-1.59883 0.23983,-0.2798 0.53961,-0.2798 0.25981,0 0.39971,0.23983 0.15988,0.23982 0.15988,0.65951 0,0.79942 -0.37972,1.2391 -0.8194,1.01925 -1.73873,1.71874 -0.91933,0.69949 -1.7787,0.69949 -0.65952,0 -1.21911,-0.43968 -0.53961,-0.45966 -0.8194,-1.23909 -1.03924,1.67877 -2.61809,1.67877 z m 0.71948,-2.01852 q 0.43968,0 0.83938,-0.51962 0.39971,-0.51963 0.57958,-1.379 l 0.73946,-3.67731 q -0.83939,0.02 -1.55886,0.63953 -0.69949,0.59956 -1.11918,1.59883 -0.4197,0.99927 -0.4197,2.11846 0,0.61954 0.23983,0.91932 0.25981,0.29979 0.69949,0.29979 z"
             style="font-style:normal;font-variant:normal;font-weight:normal;font-stretch:normal;font-family:Pacifico;-inkscape-font-specification:Pacifico;fill:#ffffff;fill-opacity:1;stroke-width:0.4996348"
             id="path1259" />
          <path
             d="m 180.4482,173.44592 q -0.75944,0 -1.07921,-0.79942 -0.29978,-0.79941 -0.29978,-2.55813 0,-2.5981 0.73946,-4.93639 0.17987,-0.57957 0.57957,-0.83938 0.4197,-0.2798 1.15916,-0.2798 0.39971,0 0.55959,0.0999 0.15988,0.0999 0.15988,0.37972 0,0.31977 -0.29978,1.43895 -0.19985,0.79941 -0.31977,1.39897 -0.11991,0.59957 -0.19985,1.47892 0.65952,-1.71874 1.47892,-2.79795 0.8194,-1.07921 1.59883,-1.53888 0.79942,-0.45966 1.45893,-0.45966 1.29906,0 1.29906,1.29905 0,0.25981 -0.17987,1.25908 -0.15989,0.79942 -0.15989,0.99927 0,0.69949 0.49964,0.69949 0.55959,0 1.43895,-0.87936 0.25981,-0.25981 0.5396,-0.25981 0.25981,0 0.39971,0.23983 0.15988,0.21984 0.15988,0.59956 0,0.73946 -0.3997,1.15915 -0.5596,0.57958 -1.31904,0.99927 -0.73946,0.39971 -1.57885,0.39971 -1.05922,0 -1.61881,-0.53961 -0.53961,-0.5396 -0.53961,-1.45893 0,-0.29978 0.06,-0.59956 0.04,-0.39971 0.04,-0.53961 0,-0.31977 -0.21984,-0.31977 -0.29978,0 -0.79942,0.67951 -0.47965,0.65952 -0.9593,1.75871 -0.47965,1.0992 -0.77943,2.31831 -0.21984,0.93931 -0.51962,1.27906 -0.27979,0.31977 -0.89934,0.31977 z"
             style="font-style:normal;font-variant:normal;font-weight:normal;font-stretch:normal;font-family:Pacifico;-inkscape-font-specification:Pacifico;fill:#ffffff;fill-opacity:1;stroke-width:0.4996348"
             id="path1261" />
          <path
             d="m 199.47585,168.88925 q 0.25981,0 0.39971,0.23983 0.15989,0.23982 0.15989,0.65951 0,0.79942 -0.37973,1.2391 -0.8194,0.99927 -1.79868,1.71874 -0.97929,0.69949 -1.93859,0.69949 -1.51889,0 -2.3183,-1.7787 -0.83939,1.05923 -1.47892,1.41896 -0.61955,0.35974 -1.45893,0.35974 -1.21911,0 -2.01853,-0.89934 -0.77943,-0.91933 -0.77943,-2.37826 0,-1.59884 0.6795,-2.95784 0.67951,-1.37899 1.85865,-2.23837 1.19912,-0.87935 2.67804,-1.03924 0.37972,-3.87716 1.43895,-6.61516 1.07921,-2.75799 2.81794,-2.75799 0.85937,0 1.41896,0.77943 0.57958,0.77943 0.57958,2.35828 0,2.23836 -1.0992,5.23617 -1.0992,2.99781 -2.93785,6.1555 0.0799,1.15916 0.33975,1.65879 0.27979,0.49964 0.69949,0.49964 0.5396,0 1.09919,-0.47965 0.5596,-0.47965 1.49891,-1.59883 0.23982,-0.2798 0.5396,-0.2798 z m -2.35827,-12.37096 q -0.37972,0 -0.75945,1.35901 -0.37972,1.33902 -0.65951,3.51743 -0.25981,2.17841 -0.37973,4.55667 2.23837,-4.87644 2.23837,-7.83428 0,-0.75944 -0.1399,-1.17914 -0.11991,-0.41969 -0.29978,-0.41969 z m -5.7558,14.90911 q 0.37973,0 0.75945,-0.29979 0.37972,-0.31976 0.9593,-1.15915 -0.19986,-1.07921 -0.19986,-2.41823 0,-0.47965 0.04,-1.55886 -1.0992,0.33975 -1.83866,1.47892 -0.71947,1.11918 -0.71947,2.49817 0,1.45894 0.99926,1.45894 z"
             style="font-style:normal;font-variant:normal;font-weight:normal;font-stretch:normal;font-family:Pacifico;-inkscape-font-specification:Pacifico;fill:#ffffff;fill-opacity:1;stroke-width:0.4996348"
             id="path1263" />
        </g>
        <g
           id="g1080"
           transform="matrix(0.9644092,0,0,0.9644092,215.0176,39.455041)">
          <path
             inkscape:export-ydpi="96"
             inkscape:export-xdpi="96"
             sodipodi:nodetypes="cccc"
             inkscape:connector-curvature="0"
             id="path4519-0-7-1"
             d="m -144.11657,129.93337 -9.78813,12.63929 -3.89078,-12.62529 z"
             style="fill:#9099b7;fill-opacity:1;stroke:none;stroke-width:0.46050122;stroke-linecap:butt;stroke-linejoin:miter;stroke-miterlimit:4;stroke-dasharray:none;stroke-opacity:1" />
          <path
             inkscape:export-ydpi="96"
             inkscape:export-xdpi="96"
             sodipodi:nodetypes="ccccc"
             inkscape:connector-curvature="0"
             id="path4523-9-2-5"
             d="m -166.51745,128.9886 3.22811,-13.72372 11.59457,2.82015 -6.10071,11.86234 z"
             style="fill:#454d6a;fill-opacity:1;stroke:none;stroke-width:0.46050122;stroke-linecap:butt;stroke-linejoin:miter;stroke-miterlimit:4;stroke-dasharray:none;stroke-opacity:1" />
          <path
             inkscape:export-ydpi="96"
             inkscape:export-xdpi="96"
             sodipodi:nodetypes="cccc"
             inkscape:connector-curvature="0"
             id="path4525-4-9-0"
             d="m -157.79548,129.94737 -1.61681,8.48489 5.50759,4.1404 z"
             style="fill:#586288;fill-opacity:1;stroke:none;stroke-width:0.46050122;stroke-linecap:butt;stroke-linejoin:miter;stroke-miterlimit:4;stroke-dasharray:none;stroke-opacity:1" />
          <path
             inkscape:export-ydpi="96"
             inkscape:export-xdpi="96"
             sodipodi:nodetypes="cccc"
             inkscape:connector-curvature="0"
             id="path4527-2-6-0"
             d="m -175.17283,124.08942 8.65538,4.89918 3.22811,-13.72372 z"
             style="fill:#282f4c;fill-opacity:1;stroke:none;stroke-width:0.46050122;stroke-linecap:butt;stroke-linejoin:miter;stroke-miterlimit:4;stroke-dasharray:none;stroke-opacity:1" />
          <path
             inkscape:export-ydpi="96"
             inkscape:export-xdpi="96"
             sodipodi:nodetypes="cccc"
             inkscape:connector-curvature="0"
             id="path4529-8-8-3"
             d="m -168.07584,137.27027 1.55839,-8.28167 8.72197,0.95877 z"
             style="fill:#282f4c;fill-opacity:1;stroke:none;stroke-width:0.46050122;stroke-linecap:butt;stroke-linejoin:miter;stroke-miterlimit:4;stroke-dasharray:none;stroke-opacity:1" />
          <path
             inkscape:export-ydpi="96"
             inkscape:export-xdpi="96"
             sodipodi:nodetypes="cccc"
             inkscape:connector-curvature="0"
             id="path4531-7-0-4"
             d="m -162.60342,142.657 3.19113,-4.22474 5.50759,4.1404 z"
             style="fill:#282f4c;fill-opacity:1;stroke:none;stroke-width:0.46050122;stroke-linecap:butt;stroke-linejoin:miter;stroke-miterlimit:4;stroke-dasharray:none;stroke-opacity:1" />
          <path
             inkscape:export-ydpi="96"
             inkscape:export-xdpi="96"
             sodipodi:nodetypes="cccc"
             inkscape:connector-curvature="0"
             id="path4533-8-0-7"
             d="m -157.79548,129.94737 6.10071,-11.86234 7.5782,11.84834 z"
             style="fill:#586288;fill-opacity:1;stroke:none;stroke-width:0.46050122;stroke-linecap:butt;stroke-linejoin:miter;stroke-miterlimit:4;stroke-dasharray:none;stroke-opacity:1" />
          <path
             inkscape:export-ydpi="96"
             inkscape:export-xdpi="96"
             inkscape:connector-curvature="0"
             id="path4539-5-9-3"
             d="m -175.17283,124.08942 8.65538,4.89918 -1.55839,8.28167 z"
             style="fill:#1f253d;fill-opacity:1;stroke:none;stroke-width:0.12184093;stroke-linecap:butt;stroke-linejoin:miter;stroke-miterlimit:4;stroke-dasharray:none;stroke-opacity:1" />
          <path
             inkscape:export-ydpi="96"
             inkscape:export-xdpi="96"
             sodipodi:nodetypes="ccccc"
             inkscape:connector-curvature="0"
             id="path4541-1-6-9"
             d="m -168.07584,137.27027 10.28036,-7.3229 -1.61681,8.48489 -3.19113,4.22474 z"
             style="fill:#1f253d;fill-opacity:1;stroke:none;stroke-width:0.46050122;stroke-linecap:butt;stroke-linejoin:miter;stroke-miterlimit:4;stroke-dasharray:none;stroke-opacity:1" />
        </g>
        <g
           id="g4515-5-9"
           style="stroke:#ffffff;stroke-width:1.17835001;stroke-linecap:round;stroke-linejoin:round;stroke-miterlimit:4;stroke-dasharray:none"
           inkscape:export-xdpi="96"
           inkscape:export-ydpi="96"
           transform="matrix(0.20598353,0.39345378,-0.39345378,0.20598353,88.71967,100.23572)">
          <path
             sodipodi:nodetypes="cccc"
             inkscape:connector-curvature="0"
             id="path4493-1-6"
             d="M 72.949402,146.56547 91.09226,134.84821 101.72145,119.03412 115.47172,92.703866"
             style="fill:none;stroke:#ffffff;stroke-width:1.17835001;stroke-linecap:round;stroke-linejoin:round;stroke-miterlimit:4;stroke-dasharray:none;stroke-opacity:1" />
          <path
             inkscape:connector-curvature="0"
             id="path4495-1-2"
             d="M 105.45536,146.1875 91.09226,134.84821"
             style="fill:none;stroke:#ffffff;stroke-width:1.17835001;stroke-linecap:round;stroke-linejoin:round;stroke-miterlimit:4;stroke-dasharray:none;stroke-opacity:1" />
          <path
             inkscape:connector-curvature="0"
             id="path4497-1-2"
             d="M 67.941217,114.81547 91.09226,134.84821"
             style="fill:none;stroke:#ffffff;stroke-width:1.17835001;stroke-linecap:round;stroke-linejoin:round;stroke-miterlimit:4;stroke-dasharray:none;stroke-opacity:1"
             sodipodi:nodetypes="cc" />
          <path
             inkscape:connector-curvature="0"
             id="path4499-4-5"
             d="m 105.45536,146.1875 -3.73391,-27.15338"
             style="fill:none;stroke:#ffffff;stroke-width:1.17835001;stroke-linecap:round;stroke-linejoin:round;stroke-miterlimit:4;stroke-dasharray:none;stroke-opacity:1"
             sodipodi:nodetypes="cc" />
          <path
             inkscape:connector-curvature="0"
             id="path4501-6-5"
             d="m 85.044644,95.349702 16.676806,23.684418 28.20787,5.23075"
             style="fill:none;stroke:#ffffff;stroke-width:1.17835001;stroke-linecap:round;stroke-linejoin:round;stroke-miterlimit:4;stroke-dasharray:none;stroke-opacity:1"
             sodipodi:nodetypes="ccc" />
          <path
             inkscape:connector-curvature="0"
             id="path4503-7-4"
             d="m 101.72145,119.03412 14.69522,11.65636 4.91369,10.39434"
             style="fill:none;stroke:#ffffff;stroke-width:1.17835001;stroke-linecap:round;stroke-linejoin:round;stroke-miterlimit:4;stroke-dasharray:none;stroke-opacity:1"
             sodipodi:nodetypes="ccc" />
          <path
             inkscape:connector-curvature="0"
             id="path4505-5-5"
             d="m 116.41667,130.69048 13.51265,-6.42561"
             style="fill:none;stroke:#ffffff;stroke-width:1.17835001;stroke-linecap:round;stroke-linejoin:round;stroke-miterlimit:4;stroke-dasharray:none;stroke-opacity:1"
             sodipodi:nodetypes="cc" />
          <path
             sodipodi:nodetypes="cccccccc"
             inkscape:connector-curvature="0"
             id="path4491-9-9"
             d="m 121.33036,141.08482 8.59896,-16.81995 -14.4576,-31.561002 -30.427076,2.645834 -17.103427,19.465768 5.008187,31.75 32.505956,-0.37797 z"
             style="fill:none;stroke:#ffffff;stroke-width:1.17835001;stroke-linecap:round;stroke-linejoin:round;stroke-miterlimit:4;stroke-dasharray:none;stroke-opacity:1" />
        </g>
      </g>
    </g>
  </g>
</svg>
